<?xml version="1.0" encoding="UTF-8" standalone="no"?>
<!-- Generator: Adobe Illustrator 16.0.0, SVG Export Plug-In . SVG Version: 6.00 Build 0)  -->

<svg
   version="1.1"
   id="Layer_1"
   x="0px"
   y="0px"
   width="1000.258px"
   height="353.502px"
   viewBox="0 0 1000.258 353.502"
   enable-background="new 0 0 1000.258 353.502"
   xml:space="preserve"
   sodipodi:docname="Comcast_Logo.svg"
   inkscape:version="1.1.1 (3bf5ae0d25, 2021-09-20)"
   xmlns:inkscape="http://www.inkscape.org/namespaces/inkscape"
   xmlns:sodipodi="http://sodipodi.sourceforge.net/DTD/sodipodi-0.dtd"
   xmlns="http://www.w3.org/2000/svg"
   xmlns:svg="http://www.w3.org/2000/svg"><defs
   id="defs35" /><sodipodi:namedview
   id="namedview33"
   pagecolor="#505050"
   bordercolor="#eeeeee"
   borderopacity="1"
   inkscape:pageshadow="0"
   inkscape:pageopacity="0"
   inkscape:pagecheckerboard="0"
   showgrid="false"
   inkscape:zoom="1.1067145"
   inkscape:cx="507.3576"
   inkscape:cy="186.13654"
   inkscape:window-width="2560"
   inkscape:window-height="1377"
   inkscape:window-x="-8"
   inkscape:window-y="-8"
   inkscape:window-maximized="1"
   inkscape:current-layer="g30" />
<g
   id="g30">
	<path
   id="path2"
   d="M 530.31055 0.00390625 C 525.48927 -0.06086914 520.69233 0.83648428 516.43945 2.7714844 C 509.85045 5.4364844 503.73292 11.737766 500.04492 17.759766 C 497.31592 13.389766 493.57325 8.6130315 489.03125 5.8320312 C 478.92625 -1.5889688 462.42547 -1.7681094 452.10547 5.2128906 C 440.53047 12.930891 434.34806 25.518656 436.78906 39.472656 L 436.50195 39.824219 C 428.39995 35.049219 416.41536 34.431219 407.56836 37.949219 C 397.52736 41.531219 388.78784 51.915922 386.92188 62.169922 C 384.30987 74.823922 388.78703 86.622094 398.08203 95.246094 C 389.87403 96.556094 382.26155 99.159682 376.18555 105.51367 C 366.54955 114.71267 364.00211 130.14684 369.16211 142.21484 C 375.73911 156.27384 387.95566 163.2785 403.76562 162.9375 L 596.31445 162.9375 C 606.92045 163.1515 616.46281 160.6133 623.88281 153.2793 C 632.96481 144.1963 636.70417 130.92486 632.45117 118.50586 C 628.52917 106.19386 615.82168 96.151438 602.89062 95.523438 L 602.44531 95.076172 C 606.86731 91.110172 610.26772 86.461969 612.26172 81.292969 C 616.27972 71.015969 614.53189 57.799969 607.83789 49.292969 C 598.92589 37.375969 584.22517 33.121922 570.32617 37.044922 C 568.00117 37.844922 565.78389 39.249297 563.58789 39.654297 C 565.73089 27.224297 561.18833 16.106141 552.23438 7.9941406 C 546.45123 2.8910156 538.34602 0.11186523 530.31055 0.00390625 z M 530.87109 7.1191406 C 536.83629 7.3034604 542.78064 9.3965 547.18164 13.15625 C 550.35864 15.99025 553.03559 19.283656 554.55859 22.972656 C 558.69559 31.319656 556.26527 42.256 551.94727 49.75 L 518.53906 124.91211 L 518.25 125.26562 L 506.17383 49.015625 C 505.20483 41.693625 513.02781 38.568781 517.63281 35.050781 C 517.39881 33.974781 516.2157 34.028344 515.4707 33.527344 L 504.18164 33.408203 L 503.83984 33.068359 C 503.90384 23.602359 508.99881 14.861578 517.63281 10.267578 C 521.57906 7.9873283 526.2315 6.9757808 530.87109 7.1191406 z M 470.9707 7.3652344 C 474.17431 7.4616162 477.35773 8.12 480.30273 9.359375 C 485.29173 11.513375 490.05581 15.478375 493.00781 20.359375 C 495.73781 25.412375 497.31547 31.149953 496.35547 37.501953 L 482.73242 124.80664 C 482.80642 124.91264 482.68027 125.03003 482.57227 125.08203 L 479.04492 118.05859 L 444.90039 41.808594 C 441.72339 31.990594 444.66636 21.7245 451.81836 14.6875 C 456.77248 9.6605 463.92277 7.1531943 470.9707 7.3652344 z M 580.46875 42.894531 C 581.85842 42.882727 583.26584 42.969656 584.68359 43.160156 C 592.45459 44.579156 600.22652 49.632234 603.97852 57.115234 C 608.57252 64.949234 607.53964 76.804219 602.43164 84.074219 C 599.26764 89.180219 594.04119 91.727219 589.61719 95.074219 L 518.86914 143.64062 L 518.70703 143.64062 L 519.49805 141.31641 L 557 56.667969 C 561.91575 47.937219 570.74105 42.977164 580.46875 42.894531 z M 419.78906 43.011719 C 429.23981 43.003375 438.31802 47.904969 443.25977 56.667969 L 482.28516 143.63086 L 481.65625 143.63086 L 402.97656 89.404297 C 394.96956 82.657297 391.68825 72.551844 394.40625 62.339844 C 396.44225 54.685844 402.79552 47.532313 410.35352 44.695312 C 413.44727 43.562812 416.63881 43.0145 419.78906 43.011719 z M 400.8457 102.64453 C 405.80581 102.70513 410.79664 104.04666 414.6582 106.53516 L 484.93945 155.43164 L 401.04688 155.37695 C 392.30487 155.61195 384.88431 151.92478 379.32031 145.17578 C 373.70231 138.13078 372.16908 126.78886 376.08008 118.50586 C 378.63909 112.83486 384.08499 107.16358 389.875 104.89258 C 393.14925 103.32545 396.98784 102.59743 400.8457 102.64453 z M 599.74609 102.64453 C 603.60572 102.59743 607.44794 103.32545 610.72656 104.89258 C 616.51356 107.16358 621.96177 112.83486 624.50977 118.50586 C 628.43177 126.78886 626.8863 138.13078 621.2793 145.17578 C 615.7163 151.92478 608.27397 155.61195 599.54297 155.37695 L 515.65039 155.43164 L 585.92969 106.53516 C 589.79237 104.04666 594.78372 102.70509 599.74609 102.64453 z "
   style="fill:#ffffff" />
	
	
	
	
	
	
	<path
   d="M225.435,205.65c-40.763,0-73.893,33.152-73.893,73.916c0,40.753,33.13,73.925,73.893,73.925   c40.764,0,73.916-33.172,73.916-73.925C299.351,238.803,266.199,205.65,225.435,205.65 M225.435,338.93   c-32.736,0-59.375-26.637-59.375-59.363c0-32.717,26.639-59.355,59.375-59.355c32.737,0,59.376,26.639,59.376,59.355   C284.811,312.293,258.172,338.93,225.435,338.93"
   id="path16"
   style="fill:#ffffff" />
	<path
   d="M862.724,280.504c-3.965-2.08-28.088-14.498-31.553-16.299c-12.653-6.471-17.141-12.185-17.141-21.864   c0-13.452,11.045-22.14,28.173-22.14c10.054,0,19.774,4.424,25.478,7.632c1.035,0.565,2.261,0.885,3.539,0.885   c3.987,0,7.26-3.272,7.26-7.259c0-2.686-1.473-5.043-3.635-6.301c-7.184-4.009-19.434-9.498-32.642-9.498   c-25.167,0-42.724,15.072-42.724,36.681c0,19.391,12.749,28.537,25.222,34.912c3.495,1.78,27.896,14.358,31.552,16.287   c9.637,5.042,14.967,12.611,14.967,21.321c0,11.672-9.891,24.08-28.194,24.08c-17.803,0-31.628-11.939-35.444-15.617l-1.142-1.088   l-10.755,9.807l1.257,1.258c4.775,4.735,22.237,20.19,46.084,20.19c26.735,0,42.714-19.646,42.714-38.63   C885.74,300.684,877.361,288.156,862.724,280.504"
   id="path18"
   style="fill:#ffffff" />
	<path
   d="M73.895,220.211c15.872,0,30.785,6.184,41.978,17.365c2.665,2.654,7.675,2.654,10.297,0   c1.386-1.354,2.121-3.176,2.121-5.127c0-1.93-0.735-3.774-2.121-5.128l-0.895-0.917c-13.837-13.389-32.097-20.754-51.38-20.754   C33.152,205.65,0,238.813,0,279.555c0,40.765,33.152,73.937,73.895,73.937c21.51,0,40.89-9.229,54.396-23.942l-10.287-10.297   c-10.873,12.067-26.607,19.678-44.11,19.678c-32.726,0-59.365-26.648-59.365-59.375C14.53,246.861,41.169,220.211,73.895,220.211"
   id="path20"
   style="fill:#ffffff" />
	<path
   d="M574.941,220.211c15.852,0,30.785,6.184,41.977,17.365c2.654,2.654,7.666,2.654,10.288,0   c1.386-1.354,2.153-3.176,2.153-5.127c0-1.93-0.768-3.774-2.153-5.128l-0.885-0.917c-13.868-13.389-32.107-20.754-51.38-20.754   c-40.752,0-73.916,33.162-73.916,73.904c0,40.765,33.164,73.937,73.916,73.937c21.5,0,40.88-9.229,54.407-23.942l-10.298-10.297   c-10.873,12.067-26.629,19.678-44.109,19.678c-32.737,0-59.387-26.648-59.387-59.375   C515.554,246.861,542.204,220.211,574.941,220.211"
   id="path22"
   style="fill:#ffffff" />
	<path
   d="M449.741,205.65c-2.729,0-4.883,1.759-6.056,4.029c-1.194,2.27-43.492,106.897-43.502,106.897   c0,0-42.298-104.628-43.482-106.897c-1.183-2.271-3.335-4.029-6.064-4.029c-3.188,0-5.586,2.345-6.428,5.299   c-0.842,2.973-24.709,134.653-24.709,134.653c-0.086,0.428-0.128,0.876-0.128,1.333c0,3.623,2.953,6.556,6.556,6.556   c3.198,0,5.863-2.28,6.438-5.297l20.669-112.664c0,0,39.879,98.518,41.041,100.862c1.173,2.335,3.347,4.158,6.119,4.158   c2.771,0,4.936-1.823,6.097-4.158c1.173-2.345,41.051-100.862,41.051-100.862l21.479,117.151h13.348   c0,0-25.147-138.76-25.989-141.732C455.326,207.995,452.927,205.65,449.741,205.65"
   id="path24"
   style="fill:#ffffff" />
	<path
   d="M712.527,205.66c-2.761-0.01-4.902,1.791-6.107,4.136c-1.195,2.335-54.738,134.582-54.738,134.582   c-0.32,0.777-0.502,1.642-0.502,2.558c0,3.623,2.932,6.566,6.556,6.566c2.761,0,5.128-1.727,6.099-4.168L684.62,298.2h55.825   l22.174,54.481h14.166c0,0-56.987-140.551-58.159-142.886C717.462,207.451,715.298,205.65,712.527,205.66 M690.546,283.647   l21.98-54.046l22.002,54.046H690.546z"
   id="path26"
   style="fill:#ffffff" />
	<path
   d="M992.966,206.438h-82.293c-4.009,0-7.26,3.263-7.26,7.281c0,3.997,3.251,7.259,7.26,7.259h34.494V352.67h13.326V220.979   h34.473c4.009,0,7.292-3.262,7.292-7.259C1000.258,209.701,996.975,206.438,992.966,206.438"
   id="path28"
   style="fill:#ffffff" />
</g>
</svg>
