<?xml version="1.0" encoding="utf-8"?>
<!-- Generator: Adobe Illustrator 16.0.0, SVG Export Plug-In . SVG Version: 6.00 Build 0)  -->
<!DOCTYPE svg PUBLIC "-//W3C//DTD SVG 1.1//EN" "http://www.w3.org/Graphics/SVG/1.1/DTD/svg11.dtd">
<svg version="1.1" id="Layer_1" xmlns="http://www.w3.org/2000/svg" xmlns:xlink="http://www.w3.org/1999/xlink" x="0px" y="0px"
	 width="1000.258px" height="353.502px" viewBox="0 0 1000.258 353.502" enable-background="new 0 0 1000.258 353.502"
	 xml:space="preserve">
<g>
	<path fill="#FFFFFF" d="M500.044,17.759c3.688-6.022,9.807-12.323,16.396-14.988c11.341-5.16,26.542-2.941,35.795,5.224
		c8.954,8.112,13.496,19.23,11.353,31.66c2.196-0.405,4.413-1.811,6.738-2.611c13.899-3.923,28.599,0.331,37.511,12.248
		c6.694,8.507,8.443,21.724,4.425,32.001c-1.994,5.169-5.395,9.817-9.817,13.783l0.446,0.448
		c12.931,0.628,25.639,10.67,29.561,22.982c4.253,12.419,0.512,25.69-8.57,34.773c-7.42,7.334-16.961,9.872-27.567,9.658H403.765
		c-15.81,0.341-28.026-6.663-34.603-20.722c-5.16-12.068-2.612-27.503,7.024-36.702c6.076-6.354,13.688-8.956,21.896-10.266
		c-9.295-8.624-13.773-20.424-11.161-33.078c1.866-10.254,10.607-20.637,20.648-24.219c8.847-3.518,20.83-2.9,28.932,1.875
		l0.288-0.352c-2.441-13.954,3.742-26.543,15.317-34.261c10.32-6.981,26.821-6.801,36.926,0.62
		C493.574,8.613,497.315,13.389,500.044,17.759"/>
	<path fill="#FFFFFF" d="M225.435,205.65c-40.763,0-73.893,33.152-73.893,73.916c0,40.753,33.13,73.925,73.893,73.925
		c40.764,0,73.916-33.172,73.916-73.925C299.351,238.803,266.199,205.65,225.435,205.65 M225.435,338.93
		c-32.736,0-59.375-26.637-59.375-59.363c0-32.717,26.639-59.355,59.375-59.355c32.737,0,59.376,26.639,59.376,59.355
		C284.811,312.293,258.172,338.93,225.435,338.93"/>
	<path fill="#FFFFFF" d="M862.724,280.504c-3.965-2.08-28.088-14.498-31.553-16.299c-12.653-6.471-17.141-12.185-17.141-21.864
		c0-13.452,11.045-22.14,28.173-22.14c10.054,0,19.774,4.424,25.478,7.632c1.035,0.565,2.261,0.885,3.539,0.885
		c3.987,0,7.26-3.272,7.26-7.259c0-2.686-1.473-5.043-3.635-6.301c-7.184-4.009-19.434-9.498-32.642-9.498
		c-25.167,0-42.724,15.072-42.724,36.681c0,19.391,12.749,28.537,25.222,34.912c3.495,1.78,27.896,14.358,31.552,16.287
		c9.637,5.042,14.967,12.611,14.967,21.321c0,11.672-9.891,24.08-28.194,24.08c-17.803,0-31.628-11.939-35.444-15.617l-1.142-1.088
		l-10.755,9.807l1.257,1.258c4.775,4.735,22.237,20.19,46.084,20.19c26.735,0,42.714-19.646,42.714-38.63
		C885.74,300.684,877.361,288.156,862.724,280.504"/>
	<path fill="#FFFFFF" d="M73.895,220.211c15.872,0,30.785,6.184,41.978,17.365c2.665,2.654,7.675,2.654,10.297,0
		c1.386-1.354,2.121-3.176,2.121-5.127c0-1.93-0.735-3.774-2.121-5.128l-0.895-0.917c-13.837-13.389-32.097-20.754-51.38-20.754
		C33.152,205.65,0,238.813,0,279.555c0,40.765,33.152,73.937,73.895,73.937c21.51,0,40.89-9.229,54.396-23.942l-10.287-10.297
		c-10.873,12.067-26.607,19.678-44.11,19.678c-32.726,0-59.365-26.648-59.365-59.375C14.53,246.861,41.169,220.211,73.895,220.211"
		/>
	<path fill="#FFFFFF" d="M574.941,220.211c15.852,0,30.785,6.184,41.977,17.365c2.654,2.654,7.666,2.654,10.288,0
		c1.386-1.354,2.153-3.176,2.153-5.127c0-1.93-0.768-3.774-2.153-5.128l-0.885-0.917c-13.868-13.389-32.107-20.754-51.38-20.754
		c-40.752,0-73.916,33.162-73.916,73.904c0,40.765,33.164,73.937,73.916,73.937c21.5,0,40.88-9.229,54.407-23.942l-10.298-10.297
		c-10.873,12.067-26.629,19.678-44.109,19.678c-32.737,0-59.387-26.648-59.387-59.375
		C515.554,246.861,542.204,220.211,574.941,220.211"/>
	<path fill="#FFFFFF" d="M449.741,205.65c-2.729,0-4.883,1.759-6.056,4.029c-1.194,2.27-43.492,106.897-43.502,106.897
		c0,0-42.298-104.628-43.482-106.897c-1.183-2.271-3.335-4.029-6.064-4.029c-3.188,0-5.586,2.345-6.428,5.299
		c-0.842,2.973-24.709,134.653-24.709,134.653c-0.086,0.428-0.128,0.876-0.128,1.333c0,3.623,2.953,6.556,6.556,6.556
		c3.198,0,5.863-2.28,6.438-5.297l20.669-112.664c0,0,39.879,98.518,41.041,100.862c1.173,2.335,3.347,4.158,6.119,4.158
		c2.771,0,4.936-1.823,6.097-4.158c1.173-2.345,41.051-100.862,41.051-100.862l21.479,117.151h13.348
		c0,0-25.147-138.76-25.989-141.732C455.326,207.995,452.927,205.65,449.741,205.65"/>
	<path fill="#FFFFFF" d="M712.527,205.66c-2.761-0.01-4.902,1.791-6.107,4.136c-1.195,2.335-54.738,134.582-54.738,134.582
		c-0.32,0.777-0.502,1.642-0.502,2.558c0,3.623,2.932,6.566,6.556,6.566c2.761,0,5.128-1.727,6.099-4.168L684.62,298.2h55.825
		l22.174,54.481h14.166c0,0-56.987-140.551-58.159-142.886C717.462,207.451,715.298,205.65,712.527,205.66 M690.546,283.647
		l21.98-54.046l22.002,54.046H690.546z"/>
	<path fill="#FFFFFF" d="M992.966,206.438h-82.293c-4.009,0-7.26,3.263-7.26,7.281c0,3.997,3.251,7.259,7.26,7.259h34.494V352.67h13.326V220.979
		h34.473c4.009,0,7.292-3.262,7.292-7.259C1000.258,209.701,996.975,206.438,992.966,206.438"/>
</g>
</svg>
